<?xml version="1.0" standalone="no"?>
<!DOCTYPE svg PUBLIC "-//W3C//DTD SVG 20010904//EN"
 "http://www.w3.org/TR/2001/REC-SVG-20010904/DTD/svg10.dtd">
<svg version="1.0" xmlns="http://www.w3.org/2000/svg"
 width="1662.000000pt" height="750.000000pt" viewBox="0 0 1662.000000 750.000000"
 preserveAspectRatio="xMidYMid meet">

<g transform="translate(0.000000,750.000000) scale(0.100000,-0.100000)"
fill="#fff" stroke="none">
<path d="M7475 7440 c-322 -99 -425 -139 -491 -192 -34 -26 -67 -48 -72 -48
-6 0 -46 16 -88 35 l-77 35 -219 -142 c-120 -79 -215 -144 -210 -146 4 -1 131
29 280 67 150 38 272 68 272 66 0 -1 -7 -19 -15 -38 -20 -48 -50 -67 -105 -67
-82 0 -80 -15 8 -57 l81 -38 5 -60 c3 -33 9 -104 13 -158 l8 -99 40 30 c32 24
77 93 229 351 104 176 190 321 191 321 2 0 -10 -33 -26 -74 -15 -40 -31 -91
-35 -113 -5 -30 -13 -44 -36 -58 l-30 -18 7 -121 c4 -66 10 -124 14 -129 4 -4
61 -14 126 -22 95 -12 127 -12 159 -3 37 12 38 13 15 19 -13 4 -38 7 -54 8
-24 1 -47 18 -109 80 l-78 78 29 66 c26 60 43 79 217 241 l189 175 96 -66 c53
-37 122 -85 155 -107 l59 -41 -7 -149 c-3 -82 -6 -171 -6 -199 0 -36 -3 -48
-13 -44 -7 3 -70 49 -141 102 -70 53 -129 95 -131 94 -2 -2 -1 -25 2 -50 5
-46 9 -50 164 -189 87 -78 160 -149 163 -158 12 -44 48 -343 42 -349 -4 -4
-193 -22 -422 -40 l-415 -33 -70 -36 c-39 -19 -69 -37 -66 -40 2 -3 143 9 312
26 169 18 311 28 315 23 4 -4 68 -85 143 -179 l137 -171 36 -169 c19 -93 33
-182 31 -199 -9 -58 -170 -595 -179 -595 -4 0 -27 14 -50 30 -23 17 -43 28
-46 26 -2 -3 23 -57 57 -121 l62 -115 84 -468 c47 -257 85 -473 85 -480 0 -18
-496 -577 -554 -626 -26 -21 -46 -40 -44 -42 6 -5 112 38 278 112 80 35 159
64 175 64 29 0 34 -6 75 -90 24 -49 46 -88 48 -86 2 2 -9 61 -24 131 l-27 126
67 240 68 239 -4 223 -4 222 -97 259 c-53 143 -97 266 -97 274 0 8 46 96 102
195 l102 182 -23 215 c-36 342 -37 393 -12 505 l23 96 -26 32 c-14 18 -37 46
-51 63 l-25 31 75 80 c41 45 75 89 75 98 0 9 -31 117 -69 241 l-70 225 16 47
c11 34 17 101 19 247 l4 200 -150 120 c-200 160 -224 165 -485 85z"/>
<path d="M8811 7483 c-49 -6 -251 -122 -256 -148 -3 -11 -21 -122 -40 -247
-34 -223 -35 -227 -19 -290 l17 -63 -72 -233 -72 -233 68 -75 c37 -42 72 -81
77 -89 7 -9 -5 -31 -41 -74 l-51 -60 21 -78 c27 -100 26 -196 -7 -502 l-24
-235 105 -188 105 -188 -36 -77 c-34 -72 -42 -110 -105 -492 l-68 -413 68
-237 69 -236 -26 -120 c-14 -66 -27 -126 -29 -132 -3 -7 -2 -13 0 -13 3 0 25
41 50 90 42 85 47 90 76 90 18 0 91 -27 163 -59 72 -33 160 -71 196 -84 36
-14 74 -29 85 -33 11 -4 -9 19 -44 52 -105 96 -551 607 -546 624 2 8 41 222
86 475 l81 460 64 119 c35 66 62 121 60 124 -3 2 -25 -11 -51 -29 -27 -19 -49
-29 -54 -23 -4 5 -47 143 -94 306 l-85 296 37 179 37 178 143 178 c79 97 146
177 150 177 3 0 141 -14 306 -30 165 -17 304 -30 310 -30 5 0 -22 18 -61 40
l-72 39 -421 34 c-232 19 -423 36 -425 38 -2 2 8 85 22 185 l27 180 157 142
c129 117 158 148 164 176 13 74 6 72 -134 -34 -74 -56 -136 -99 -139 -96 -6 6
-22 378 -16 388 5 9 286 206 300 210 5 2 95 -76 199 -173 167 -156 192 -183
215 -236 l26 -60 -76 -80 c-75 -79 -77 -81 -136 -88 l-60 -7 44 -14 c37 -11
64 -10 164 1 66 8 121 16 123 18 3 3 24 213 24 242 0 6 -13 19 -30 28 -21 13
-31 28 -36 55 -7 39 -22 83 -48 145 -9 20 -14 37 -12 37 2 0 89 -143 193 -319
143 -243 196 -324 222 -341 25 -16 36 -19 41 -10 4 7 11 75 15 151 l7 139 84
42 c92 45 94 58 8 58 -40 0 -55 5 -71 23 -22 24 -43 60 -43 74 0 8 766 -180
776 -190 5 -5 -14 -303 -21 -324 -2 -7 -52 4 -150 34 -152 46 -192 51 -106 15
28 -12 66 -41 88 -65 21 -24 66 -63 101 -86 71 -48 67 -42 118 -206 l38 -120
8 55 c9 58 76 260 87 260 3 -1 58 -99 123 -219 l116 -218 -14 -59 c-9 -40 -21
-65 -38 -79 -21 -17 -56 -80 -56 -101 0 -4 33 -4 73 -1 l72 5 79 -49 c43 -28
81 -48 83 -45 7 7 -217 739 -231 752 -6 7 -76 42 -156 79 -80 37 -146 68 -147
69 -1 1 -14 98 -29 216 -15 118 -30 218 -33 222 -3 4 -154 55 -334 112 l-329
106 -75 -35 c-42 -19 -81 -35 -88 -35 -7 0 -40 22 -73 48 -51 41 -85 57 -209
100 -374 128 -465 149 -582 135z"/>
<path d="M3140 7150 c-155 -41 -1371 -448 -1428 -479 -9 -5 -74 -110 -143
-233 -70 -122 -435 -769 -813 -1436 l-686 -1214 -33 -569 -34 -568 27 -103
c18 -70 31 -158 40 -271 8 -103 18 -174 25 -181 7 -7 237 -99 511 -205 l498
-193 720 11 c397 6 948 14 1226 17 278 3 548 9 600 13 l95 8 658 388 658 388
29 -28 c28 -27 28 -29 23 -114 -4 -63 -1 -100 10 -139 15 -49 15 -59 0 -123
l-17 -69 46 -290 46 -289 64 -92 63 -93 164 -96 163 -95 53 -150 c47 -135 107
-264 157 -337 10 -14 54 -47 98 -73 l80 -47 342 -15 343 -16 133 -126 c234
-222 170 -190 532 -260 l314 -61 76 50 c53 35 87 50 111 50 19 1 49 9 68 19
31 16 44 40 131 235 l97 217 -9 57 c-5 31 -16 64 -24 73 -13 14 -11 51 20 315
56 485 56 434 2 542 l-46 91 40 93 c40 92 41 95 52 278 l11 185 -37 250 c-38
261 -60 396 -78 479 -12 57 -20 49 -38 -38 l-12 -58 -52 51 c-50 50 -52 50
-89 40 l-38 -10 20 -27 c10 -15 34 -40 51 -57 18 -16 46 -57 62 -90 l31 -60
13 -370 c19 -535 18 -606 -10 -776 l-24 -146 -86 -166 -87 -165 -212 102
c-344 167 -309 144 -342 226 -16 39 -33 74 -39 78 -6 4 -63 18 -126 32 l-115
25 -14 161 -14 162 31 57 c38 69 40 70 -135 -37 l-132 -80 -361 51 c-199 29
-365 51 -371 49 -5 -2 85 -56 202 -120 l212 -117 229 70 c126 39 231 69 233
67 1 -1 14 -73 27 -158 l23 -155 138 -45 138 -45 72 -75 c40 -41 122 -128 182
-192 l110 -117 259 30 c142 17 260 28 263 25 2 -2 -17 -41 -43 -86 -49 -85
-61 -97 -197 -182 -75 -47 -76 -48 -66 -78 6 -16 13 -30 14 -30 2 0 55 30 117
66 62 36 117 66 123 67 5 1 19 -77 31 -173 l21 -175 -111 -149 -111 -149 -13
49 c-7 27 -15 55 -18 63 -3 10 -36 -19 -97 -84 l-92 -98 -225 18 c-161 13
-232 22 -250 33 -20 13 -393 297 -423 323 -5 4 33 32 83 64 51 31 131 83 178
116 47 32 93 59 102 59 9 0 69 -18 135 -40 65 -22 120 -39 121 -37 2 2 -37 27
-86 56 -49 29 -93 58 -98 64 -5 7 -36 81 -68 166 l-59 154 -7 -138 c-8 -139
-8 -139 -40 -172 -17 -18 -35 -33 -39 -33 -11 0 -209 171 -209 180 0 4 14 68
31 141 26 116 39 243 25 257 -3 2 -29 -15 -58 -37 -74 -55 -252 -112 -321
-101 -26 4 -47 4 -47 1 0 -4 11 -23 24 -42 21 -30 32 -37 72 -43 26 -3 62 -6
81 -6 58 0 70 -16 114 -147 l40 -122 90 -67 c49 -37 88 -68 86 -70 -9 -10
-841 -134 -847 -127 -13 14 -320 526 -317 529 7 7 282 33 285 26 2 -4 38 -68
81 -142 47 -83 83 -134 92 -133 202 25 279 37 272 43 -4 4 -77 24 -161 45
l-152 37 -25 82 c-14 45 -25 87 -25 92 0 6 54 61 120 123 67 62 119 115 118
117 -13 12 -132 -41 -258 -116 l-148 -88 -318 112 -319 112 -55 310 c-31 170
-59 324 -63 342 l-6 32 147 1 c127 1 138 3 82 10 l-65 8 -82 88 -82 88 5 75
c3 41 7 85 9 96 3 14 -8 39 -32 70 -33 43 -41 68 -84 248 -26 111 -50 220 -54
243 l-7 42 96 -32 96 -31 16 -57 16 -57 169 -116 c92 -64 170 -120 173 -125 3
-5 26 -128 51 -272 26 -145 48 -271 51 -279 4 -14 122 -86 129 -78 1 1 -37
127 -85 278 l-87 275 18 53 18 52 -67 35 c-48 24 -104 69 -197 158 l-129 123
33 91 32 91 -26 51 c-14 28 -29 51 -33 51 -4 0 -34 -32 -66 -70 -39 -46 -64
-69 -75 -66 -9 2 -41 10 -71 16 -30 7 -60 17 -66 21 -6 5 -17 57 -24 115 -17
143 -16 143 112 104 54 -16 126 -34 160 -41 57 -11 70 -20 166 -103 58 -50
123 -107 146 -126 48 -42 45 -35 -52 98 -48 66 -79 120 -86 150 l-12 47 -94 3
-94 3 -147 110 -147 110 -7 75 c-5 51 -14 82 -27 100 l-20 25 53 129 c30 72
58 130 63 130 5 0 36 -20 70 -44 33 -24 80 -53 102 -64 40 -20 43 -25 58 -94
14 -64 27 -87 97 -185 87 -121 87 -121 163 -104 l28 6 -67 65 -68 64 7 111
c18 292 38 517 50 564 l14 53 -74 -73 c-72 -71 -74 -75 -116 -196 -24 -68 -45
-123 -48 -123 -3 0 -38 72 -77 161 l-73 160 86 145 c47 79 89 144 94 144 5 0
19 -13 31 -29 20 -28 94 -69 104 -59 3 3 0 18 -5 35 -8 22 -4 145 15 458 14
236 25 441 24 455 0 14 -38 -101 -85 -255 -144 -479 -148 -489 -240 -631 l-53
-83 -16 -173 c-16 -159 -19 -175 -41 -195 -13 -12 -56 -89 -94 -170 -39 -81
-72 -149 -74 -151 -3 -2 -187 133 -410 301 l-405 305 -932 -354 c-512 -195
-937 -354 -944 -354 -12 0 -28 72 -105 491 l-38 207 93 363 c52 200 111 415
132 478 l39 114 222 87 c122 48 225 90 229 93 13 14 39 5 185 -63 l150 -69
227 64 c138 40 259 68 311 74 117 11 249 78 383 191 86 73 95 84 101 123 5 32
24 65 86 142 44 55 79 109 79 120 0 11 -14 43 -32 71 -44 70 -846 934 -866
933 -9 0 -99 -22 -201 -49z m238 -155 c-14 -8 -66 -29 -115 -47 -79 -30 -85
-33 -54 -36 l34 -3 -33 -20 c-18 -11 -70 -34 -116 -51 -46 -16 -84 -32 -84
-35 0 -13 146 9 188 27 24 11 50 20 57 20 16 0 69 -83 81 -125 8 -28 9 -28 12
17 3 52 -19 106 -62 149 l-26 26 45 6 c25 4 63 16 85 27 21 11 42 20 44 20 13
0 76 -107 76 -128 0 -14 4 -21 11 -16 7 4 9 24 6 50 -2 24 -3 44 -2 44 6 0
495 -721 495 -729 0 -11 -58 -61 -71 -61 -5 0 -86 117 -180 260 -94 144 -174
259 -176 256 -2 -2 64 -139 146 -305 174 -347 176 -353 107 -401 -25 -16 -47
-30 -50 -30 -2 0 -82 151 -177 335 -94 185 -173 334 -175 332 -3 -2 227 -604
272 -713 3 -7 -28 -20 -81 -33 l-86 -21 -45 31 c-48 36 -42 20 -156 397 -24
78 -44 139 -46 134 -1 -5 22 -121 52 -258 29 -137 56 -263 60 -281 13 -72 -80
-124 -261 -144 l-101 -11 -84 44 c-110 57 -111 68 -13 138 42 30 95 65 118 77
l42 22 -33 1 c-22 0 -35 6 -38 18 -4 9 -24 56 -47 104 -44 97 -40 95 -127 62
-34 -13 -34 -14 21 -8 49 5 57 4 61 -13 3 -10 15 -51 26 -91 l21 -72 -72 -39
c-40 -22 -83 -48 -97 -58 -30 -22 -110 -52 -393 -149 -204 -69 -221 -74 -259
-64 -37 10 -42 17 -73 84 -18 40 -39 99 -46 132 l-14 59 -3 -70 c-3 -71 18
-182 45 -242 14 -30 12 -41 -41 -210 -31 -98 -97 -347 -147 -553 -78 -324 -90
-383 -85 -435 3 -34 0 -81 -5 -105 -24 -107 -99 -604 -99 -657 0 -47 50 -278
65 -303 3 -4 9 -48 15 -98 l10 -90 -163 -311 c-145 -280 -170 -321 -240 -401
-78 -89 -79 -90 -403 -285 -295 -179 -327 -196 -357 -190 -66 15 -64 8 -59
182 4 158 4 158 32 183 37 33 78 97 129 197 53 106 248 584 337 827 l69 188 7
-78 c15 -173 56 -258 212 -442 72 -85 108 -182 117 -312 l5 -95 2 90 c3 125
-38 250 -110 337 -173 207 -207 319 -177 586 9 83 29 151 136 462 257 749 502
1474 499 1477 -1 2 -58 -144 -126 -324 -227 -605 -607 -1596 -703 -1833 -122
-299 -313 -728 -379 -847 -79 -144 -132 -186 -221 -176 -34 4 -57 15 -86 40
-61 52 -82 87 -105 181 l-22 87 12 476 13 477 484 853 c266 470 627 1111 802
1424 175 314 324 576 331 584 18 20 1137 384 1354 441 197 52 231 58 188 35z
m896 -2875 c152 -89 275 -164 274 -165 -2 -2 -88 26 -193 61 -161 55 -219 69
-378 94 -104 17 -225 30 -270 30 l-82 1 165 74 c91 41 175 73 187 71 11 -1
145 -76 297 -166z m-2403 -29 c13 -60 79 -481 81 -517 1 -32 -121 -354 -134
-354 -5 0 -8 22 -8 48 0 27 -12 100 -26 163 -39 169 -36 233 19 487 26 117 47
215 47 219 0 18 13 -10 21 -46z m1949 -56 l324 -25 188 -71 c162 -61 324 -138
397 -189 16 -11 29 -42 46 -110 14 -52 25 -100 25 -106 0 -6 -177 -97 -392
-202 l-393 -191 -513 -114 -513 -114 -182 48 -182 47 -295 167 c-162 91 -299
171 -305 176 -6 6 12 31 50 69 53 53 75 66 228 135 94 41 172 74 174 72 4 -5
-210 -149 -254 -171 -18 -9 -33 -19 -33 -21 0 -13 133 64 277 159 145 96 190
118 563 284 223 99 419 181 435 181 17 1 176 -10 355 -24z m1010 -625 c0 -5
17 -115 39 -242 37 -226 38 -237 29 -351 -10 -108 -9 -119 8 -138 17 -19 17
-20 -2 -38 -10 -10 -106 -83 -213 -162 l-195 -144 -145 1 c-222 1 -319 27
-579 154 -143 70 -234 122 -309 176 -120 88 -120 87 14 99 l82 7 248 140 c221
126 979 506 1011 507 6 1 12 -3 12 -9z m-2480 -363 l256 -136 284 -72 285 -72
95 -68 c194 -137 267 -178 482 -267 196 -83 224 -92 348 -112 109 -18 155 -21
240 -15 58 4 102 4 98 0 -3 -4 -147 -79 -320 -169 l-313 -162 -326 -29 c-325
-28 -328 -29 -645 -17 l-319 12 -147 44 c-125 37 -172 58 -310 134 -245 135
-398 209 -448 216 l-45 6 47 -14 c53 -15 197 -93 436 -237 141 -85 182 -104
315 -148 148 -49 157 -51 351 -66 110 -8 202 -18 205 -20 2 -3 -65 -3 -150 0
-85 3 -485 12 -889 21 -604 13 -761 19 -880 35 -80 10 -152 19 -160 19 -12 0
-12 2 0 13 8 8 130 85 270 172 274 170 332 215 369 285 52 98 444 816 458 838
l14 23 72 -39 c40 -21 187 -100 327 -175z m-2054 -756 c5 -4 31 -14 57 -20 44
-10 75 -9 145 5 22 4 22 3 22 -113 0 -65 -4 -124 -9 -131 -12 -20 -219 93
-232 126 -11 29 -12 142 -1 142 4 0 12 -4 18 -9z"/>
<path d="M3060 6769 c-19 -12 -65 -32 -102 -45 -37 -12 -75 -27 -85 -33 -16
-9 -15 -10 7 -11 52 0 154 22 193 41 22 12 43 17 46 12 36 -48 71 -111 72
-127 0 -18 2 -16 10 6 14 37 -3 94 -41 141 -36 43 -52 45 -100 16z"/>
<path d="M2155 3420 c-3 -6 1 -7 9 -4 18 7 21 14 7 14 -6 0 -13 -4 -16 -10z"/>
<path d="M12851 6753 c-397 -430 -470 -516 -471 -556 0 -10 34 -61 75 -113 78
-97 95 -128 95 -169 0 -17 25 -44 98 -105 131 -111 282 -185 392 -194 48 -3
158 -29 301 -71 l227 -65 153 71 c84 39 160 68 168 65 9 -2 117 -45 241 -93
l225 -89 47 -141 c26 -78 86 -294 132 -480 l85 -339 -35 -190 c-50 -274 -94
-498 -99 -503 -3 -2 -20 0 -38 6 -24 8 -991 375 -1795 681 l-52 20 -458 -344
c-357 -270 -458 -351 -464 -372 -3 -15 -9 -47 -13 -72 -7 -45 -8 -46 -173
-168 l-166 -122 -92 0 -92 0 -12 -49 c-8 -34 -36 -82 -90 -157 -43 -60 -77
-110 -75 -112 2 -2 65 50 139 115 129 113 139 120 198 132 35 7 107 26 160 42
l98 30 30 -22 c17 -13 30 -32 30 -43 -1 -23 -35 -175 -41 -181 -2 -2 -42 -12
-89 -24 l-85 -20 -65 70 c-36 38 -68 69 -71 69 -3 0 -16 -23 -29 -51 l-24 -51
29 -86 c17 -48 30 -90 30 -95 0 -4 -60 -63 -133 -132 -89 -84 -154 -136 -194
-156 -39 -19 -58 -35 -55 -44 33 -84 34 -74 -58 -364 -47 -150 -84 -275 -82
-277 5 -5 115 55 122 66 3 5 26 126 51 267 24 142 46 267 49 278 3 13 67 63
169 133 90 62 169 119 174 125 5 7 16 35 24 62 l13 50 94 33 c52 18 96 30 99
28 4 -5 -90 -416 -108 -468 -5 -15 -23 -45 -40 -67 l-31 -39 7 -95 c8 -109 12
-100 -89 -206 -66 -71 -69 -73 -130 -80 -52 -7 -40 -9 81 -10 86 0 142 -5 142
-11 0 -23 -112 -637 -120 -656 -6 -16 -72 -43 -316 -129 -170 -60 -313 -108
-319 -108 -6 0 -76 38 -156 86 -79 47 -168 92 -196 101 -54 15 -69 8 -33 -17
11 -7 65 -57 120 -111 l100 -97 -27 -89 -27 -89 -151 -37 c-153 -38 -198 -53
-160 -54 11 0 80 -9 153 -19 l132 -18 81 144 81 144 36 -5 c21 -3 82 -10 136
-16 55 -6 102 -13 105 -15 3 -4 -296 -512 -314 -533 -4 -4 -837 127 -843 132
-2 3 36 35 86 71 l89 68 38 118 c42 134 54 149 125 150 95 1 120 10 148 58 24
41 24 43 5 37 -73 -23 -256 25 -353 93 l-59 41 -5 -52 c-5 -41 2 -89 28 -203
33 -145 34 -151 16 -165 -10 -8 -57 -48 -104 -88 l-85 -74 -36 27 c-19 15 -36
30 -36 34 -1 3 -4 71 -8 151 l-6 145 -65 -168 -64 -169 -93 -55 c-52 -31 -92
-57 -90 -59 2 -2 57 14 122 36 66 22 125 40 132 40 8 0 67 -35 131 -78 64 -44
143 -94 174 -113 32 -19 58 -37 58 -41 0 -3 -98 -82 -217 -174 l-218 -168
-200 -17 c-294 -26 -256 -34 -355 75 -47 52 -88 95 -91 95 -3 1 -12 -24 -19
-54 -7 -30 -16 -55 -20 -55 -4 0 -55 64 -114 142 l-108 142 21 175 c12 96 23
176 24 178 2 1 58 -30 125 -69 68 -38 125 -68 127 -66 3 2 7 18 10 34 6 28 1
32 -103 96 -108 67 -110 68 -160 155 -31 53 -46 89 -39 91 7 1 125 -11 262
-27 l250 -29 57 56 c32 31 113 116 180 189 l123 133 143 46 c78 25 142 49 142
52 1 28 48 304 52 308 3 3 108 -26 234 -65 l228 -70 215 119 c119 66 207 120
196 120 -11 0 -180 -23 -376 -51 l-356 -51 -140 86 c-77 47 -144 86 -147 86
-3 0 7 -27 23 -59 l30 -59 -14 -157 c-8 -87 -16 -159 -17 -160 -2 -2 -41 -10
-88 -20 -164 -32 -152 -25 -189 -113 l-32 -79 -254 -121 c-140 -67 -259 -122
-264 -122 -5 0 -47 73 -94 163 -83 159 -85 164 -106 293 -25 155 -27 327 -10
829 l11 330 29 57 c16 31 53 83 83 116 l55 59 -40 12 -40 12 -46 -51 c-52 -58
-54 -57 -74 33 -7 32 -15 54 -19 50 -4 -4 -14 -44 -23 -88 -12 -58 -14 -94 -8
-133 4 -30 7 -73 4 -95 -2 -23 -20 -208 -39 -412 -20 -203 -34 -386 -31 -405
2 -19 19 -70 38 -113 l33 -78 -47 -94 -47 -95 42 -366 c41 -351 42 -367 25
-396 -9 -16 -17 -42 -17 -57 0 -29 57 -402 62 -406 2 -1 46 -32 99 -69 69 -47
106 -66 128 -66 22 0 43 -11 72 -37 l41 -37 202 -14 201 -13 152 63 153 63
167 161 168 161 347 16 348 15 84 51 85 51 61 115 c33 63 78 169 101 237 22
68 43 129 48 137 4 8 28 22 53 30 36 13 83 53 226 191 l180 175 46 287 46 287
-16 67 c-16 63 -16 72 -1 129 12 44 15 84 11 145 -6 83 -5 86 23 119 l29 34
649 -383 c357 -210 666 -391 687 -402 43 -23 -89 -19 1875 -48 l782 -12 498
193 c274 106 503 196 509 201 7 5 17 78 24 171 8 102 23 204 41 277 l27 115
-33 567 -34 567 -807 1428 c-443 785 -814 1435 -823 1444 -26 25 -1294 453
-1478 499 -89 22 -166 40 -170 40 -5 0 -195 -201 -422 -447z m579 207 c124
-31 1348 -422 1356 -433 0 -1 153 -274 339 -607 186 -333 550 -978 808 -1434
l470 -828 13 -477 c12 -466 12 -478 -7 -556 -34 -134 -100 -212 -191 -226 -90
-15 -145 29 -230 184 -62 113 -266 573 -383 862 -98 242 -414 1067 -670 1747
-76 203 -140 367 -142 365 -3 -4 223 -672 466 -1380 160 -464 171 -511 171
-687 0 -163 -42 -261 -180 -431 -47 -58 -63 -87 -89 -168 -23 -73 -31 -114
-29 -162 l1 -64 6 70 c10 116 55 222 134 317 146 175 183 253 195 418 l7 85
74 -200 c106 -285 294 -744 349 -849 26 -49 68 -113 94 -141 l47 -51 7 -161 7
-160 -50 -12 -50 -12 -319 191 c-426 255 -422 252 -657 705 l-156 300 9 75 c5
41 25 136 44 210 24 90 36 157 36 201 0 63 -49 406 -88 618 -10 53 -17 121
-14 151 3 44 -15 131 -87 431 -49 207 -115 456 -145 553 -47 149 -54 181 -44
199 25 47 48 164 47 242 l-1 80 -17 -70 c-10 -38 -32 -98 -49 -132 -28 -54
-37 -64 -70 -73 -36 -9 -57 -4 -258 64 -271 92 -359 126 -405 157 -19 14 -61
38 -92 54 -66 35 -68 40 -33 141 l23 69 54 -2 54 -2 -50 19 c-27 10 -55 19
-61 19 -10 1 -67 -110 -93 -181 -9 -23 -17 -28 -43 -28 l-33 -1 32 -14 c38
-16 213 -143 213 -154 0 -15 -35 -39 -109 -76 l-74 -37 -106 12 c-105 12 -193
41 -233 77 -10 9 -18 30 -18 49 0 18 25 148 56 290 30 141 54 258 51 260 -2 2
-36 -105 -76 -239 -60 -198 -78 -246 -100 -265 -60 -53 -59 -53 -153 -31 l-87
21 18 46 c10 26 74 189 141 362 67 173 125 320 128 325 3 7 1 7 -5 0 -6 -5
-86 -156 -178 -335 -92 -179 -171 -329 -175 -333 -4 -5 -26 3 -49 18 -39 26
-41 30 -41 76 0 43 18 86 151 352 83 166 147 298 141 292 -5 -5 -87 -126 -181
-267 -94 -142 -174 -258 -178 -258 -18 0 -74 54 -69 67 6 14 470 699 487 717
5 5 6 -7 3 -26 -4 -20 -1 -44 5 -54 10 -18 10 -18 11 -1 0 20 31 81 58 116
l19 23 41 -21 c23 -12 62 -24 88 -28 l45 -6 -30 -31 c-16 -17 -37 -48 -45 -68
-18 -42 -21 -108 -6 -108 6 0 10 9 10 21 0 11 15 43 33 70 35 54 35 54 114 25
51 -19 186 -33 163 -17 -8 6 -44 20 -79 32 -34 12 -81 32 -104 44 l-40 23 34
4 c30 3 24 6 -58 37 -87 32 -160 70 -108 57 11 -3 94 -24 185 -46z m-605
-2742 l166 -73 -108 -6 c-212 -12 -411 -52 -618 -123 -104 -36 -190 -64 -192
-62 -5 4 560 336 574 336 6 0 86 -33 178 -72z m1992 -294 c56 -254 59 -330 19
-503 -14 -63 -26 -134 -26 -160 0 -27 -4 -41 -9 -36 -17 18 -131 315 -131 341
0 30 64 447 81 524 6 28 13 49 15 47 3 -2 25 -98 51 -213z m-1230 -45 c378
-168 420 -188 573 -289 149 -97 277 -170 297 -170 4 0 -24 18 -64 40 -71 38
-254 162 -249 168 2 1 82 -32 178 -75 164 -73 179 -82 228 -136 34 -37 50 -61
43 -68 -5 -5 -141 -84 -303 -175 l-293 -166 -183 -47 -183 -48 -512 114 -511
114 -391 189 c-215 105 -392 192 -394 194 -4 3 43 205 48 210 2 2 29 19 59 38
93 59 191 105 373 173 l173 65 300 24 c164 13 323 24 351 25 48 1 91 -16 460
-180z m-1407 -638 c202 -98 482 -243 622 -322 l253 -143 100 -13 c55 -7 101
-12 103 -13 11 -1 -20 -27 -110 -92 -67 -48 -169 -106 -300 -170 -254 -124
-356 -151 -578 -152 l-145 0 -220 163 c-121 90 -223 166 -227 170 -4 4 -3 32
2 64 7 45 22 75 71 146 l62 89 -32 88 -32 87 23 139 c12 76 26 138 31 138 4 0
174 -80 377 -179z m2735 -423 c142 -262 256 -460 279 -485 25 -28 132 -101
305 -209 261 -163 306 -194 284 -194 -6 0 -78 -9 -159 -20 -123 -16 -277 -22
-884 -34 -404 -9 -804 -18 -889 -21 -85 -3 -153 -3 -150 -1 3 3 95 12 205 21
194 15 203 16 354 67 132 43 176 64 295 136 219 132 404 234 454 248 l46 14
-45 -6 c-51 -7 -184 -72 -439 -212 -150 -83 -194 -102 -320 -139 l-146 -43
-319 -12 c-317 -12 -320 -11 -645 17 l-326 30 -315 163 c-173 90 -317 166
-320 169 -3 2 42 2 100 -2 84 -6 132 -3 240 15 124 20 152 29 350 112 217 90
294 133 490 274 l85 61 285 72 285 71 325 175 c179 96 327 174 330 174 3 1
113 -198 245 -441z m1437 -590 c-3 -57 -8 -77 -23 -90 -27 -23 -210 -121 -215
-115 -3 3 -8 62 -11 131 l-6 127 29 -7 c48 -12 137 -8 179 8 22 9 42 16 45 17
3 0 4 -32 2 -71z"/>
<path d="M13472 6767 c-36 -38 -62 -108 -53 -147 l7 -34 12 39 c6 22 25 57 42
77 l31 38 40 -20 c37 -19 195 -48 205 -37 3 3 -28 17 -68 32 -40 15 -94 38
-119 51 -58 30 -70 30 -97 1z"/>
<path d="M15068 2343 c7 -3 16 -2 19 1 4 3 -2 6 -13 5 -11 0 -14 -3 -6 -6z"/>
<path d="M6200 6948 c-19 -5 -52 -14 -72 -19 -35 -9 -38 -13 -38 -44 0 -19 2
-35 6 -35 7 0 164 101 164 106 0 6 -21 3 -60 -8z"/>
<path d="M6039 6809 l-46 -30 13 -62 c22 -104 24 -101 -65 -136 l-78 -32 -174
-360 c-157 -326 -216 -465 -204 -478 3 -2 41 19 84 47 l80 51 76 -6 75 -6 -16
39 c-9 21 -28 53 -44 69 -18 19 -32 50 -40 85 l-11 55 117 218 c65 120 121
214 125 210 14 -16 70 -184 80 -242 6 -34 14 -61 18 -61 17 0 41 70 61 169 11
57 20 105 20 106 0 1 31 23 69 48 38 25 82 63 97 83 18 23 52 48 89 66 33 15
55 28 49 28 -6 0 -75 -20 -155 -44 l-144 -44 -7 37 c-4 20 -7 61 -8 91 -1 30
-4 72 -8 92 l-7 38 -46 -31z"/>
<path d="M6784 6390 l-111 -90 -5 -115 c-2 -63 -7 -117 -9 -120 -3 -3 -42 0
-87 6 -64 10 -87 9 -112 -1 -40 -16 -35 -19 105 -60 78 -24 122 -43 150 -66
32 -26 66 -39 167 -64 l127 -32 5 -52 c3 -28 7 -64 9 -81 3 -29 4 -28 26 20
13 28 45 96 71 153 54 112 54 112 -39 49 l-44 -30 -51 17 c-28 10 -80 32 -116
49 l-65 32 -24 130 -24 131 65 94 c69 101 81 120 76 120 -2 0 -53 -41 -114
-90z"/>
<path d="M9690 6475 c0 -3 31 -52 70 -109 l69 -104 -24 -128 c-14 -70 -28
-131 -32 -135 -11 -10 -203 -89 -217 -89 -6 0 -38 18 -71 40 -32 21 -61 38
-63 36 -2 -2 14 -39 36 -82 21 -44 51 -109 67 -147 15 -37 30 -66 32 -64 2 2
7 37 11 78 l7 74 100 26 c55 14 111 29 125 32 14 4 46 22 70 41 32 24 77 44
155 66 61 18 114 36 118 40 4 4 -6 13 -22 20 -24 10 -47 10 -106 1 -42 -6 -80
-11 -85 -11 -6 0 -10 47 -10 113 0 61 -4 117 -8 122 -11 17 -222 187 -222 180z"/>
<path d="M10315 5898 c-4 -35 -20 -153 -36 -263 l-29 -200 27 -19 c121 -90
112 -76 318 -481 l193 -380 -222 -321 c-121 -177 -238 -342 -259 -368 -21 -25
-36 -46 -32 -46 3 0 81 39 173 87 127 66 177 98 208 132 l41 45 63 -28 c51
-22 79 -44 143 -112 44 -47 81 -83 83 -82 9 10 -38 154 -53 166 -10 7 -55 33
-100 58 -45 24 -85 49 -88 53 -3 5 19 121 49 259 38 175 52 262 49 293 -5 42
-3 46 38 79 24 19 68 52 98 72 31 21 53 38 50 38 -4 0 -49 -16 -100 -35 -52
-19 -99 -35 -105 -35 -5 0 -53 80 -105 179 l-95 178 54 109 c30 60 69 125 88
145 l35 36 92 -18 c51 -10 117 -18 147 -18 52 0 54 1 35 15 -58 45 -139 75
-228 85 -51 6 -95 15 -98 21 -4 6 -10 43 -14 82 -11 123 -14 130 -80 178 -101
74 -129 92 -123 82 3 -5 31 -52 63 -104 l57 -94 -42 -206 c-24 -113 -46 -208
-49 -212 -4 -4 -46 49 -95 118 -87 124 -88 126 -82 173 4 31 -4 102 -25 221
-16 96 -32 176 -34 178 -1 2 -6 -25 -10 -60z"/>
<path d="M6226 5781 c-19 -113 -26 -180 -22 -216 l6 -51 -81 -115 c-44 -63
-86 -120 -93 -127 -10 -10 -21 29 -58 200 l-46 213 59 95 c32 52 56 96 54 98
-2 3 -44 -25 -92 -60 l-88 -65 -7 -59 c-4 -32 -10 -82 -13 -110 l-6 -51 -98
-11 c-86 -10 -109 -17 -177 -54 l-79 -43 50 -3 c28 -1 96 6 152 16 l103 18 28
-30 c26 -27 142 -238 142 -256 0 -12 -182 -350 -191 -356 -5 -3 -54 11 -109
30 -55 20 -100 34 -100 32 0 -2 19 -15 43 -29 23 -14 66 -46 94 -72 51 -45 52
-47 47 -88 -5 -31 8 -109 45 -282 29 -132 54 -245 56 -252 2 -7 -42 -39 -104
-74 l-108 -61 -17 -75 c-10 -41 -16 -76 -14 -79 3 -2 38 32 78 76 51 57 90 90
131 110 32 17 65 30 73 30 7 0 30 -20 51 -45 31 -39 64 -60 206 -130 93 -47
172 -85 176 -85 4 0 -9 17 -29 38 -28 29 -377 527 -472 674 l-17 26 196 384
195 383 70 53 c39 29 70 57 70 62 0 5 -15 48 -32 97 -31 82 -33 99 -38 248
l-5 160 -29 -164z"/>
<path d="M8973 5860 c11 -33 17 -63 14 -66 -3 -3 -25 -8 -49 -10 -122 -14
-122 -15 37 -55 83 -21 155 -38 160 -39 6 0 -15 24 -46 54 -30 29 -72 80 -93
114 -21 34 -39 62 -40 62 -1 0 6 -27 17 -60z"/>
<path d="M7582 5847 l-39 -63 -186 -73 -186 -74 -323 -264 c-178 -146 -323
-269 -323 -275 0 -6 43 -35 95 -65 52 -30 99 -58 103 -62 4 -4 30 -89 56 -189
43 -159 71 -231 92 -232 4 0 -14 70 -38 155 l-45 156 124 215 123 215 307 217
c203 143 326 224 364 238 l57 21 -33 6 c-18 4 -49 7 -69 8 -68 1 -71 6 -51 72
10 31 16 57 15 57 -2 0 -21 -28 -43 -63z"/>
<path d="M5451 5658 c0 -28 2 -30 9 -13 12 28 12 45 0 45 -5 0 -10 -15 -9 -32z"/>
<path d="M11115 5669 c14 -46 25 -56 23 -20 -2 19 -9 36 -17 39 -10 3 -11 -2
-6 -19z"/>
<path d="M9170 5677 c0 -3 65 -64 145 -137 80 -72 145 -129 145 -126 0 4 -34
57 -76 120 l-75 113 -57 13 c-31 7 -63 15 -69 17 -7 3 -13 3 -13 0z"/>
<path d="M11147 5494 c30 -456 48 -843 40 -867 -5 -15 -7 -30 -5 -33 11 -10
65 19 100 53 21 20 40 35 42 32 11 -11 166 -281 166 -290 0 -12 -130 -301
-140 -312 -7 -8 -20 26 -81 196 -12 35 -146 193 -155 184 -3 -2 2 -31 10 -63
8 -32 19 -131 25 -219 6 -88 16 -223 21 -300 l11 -140 -68 -62 c-36 -35 -65
-65 -62 -67 2 -3 27 -7 54 -11 l50 -6 79 112 c64 90 82 125 97 183 11 42 25
75 35 81 10 6 54 34 98 64 101 67 104 68 115 40 5 -13 30 -75 56 -138 54 -127
55 -127 74 5 l12 81 -57 82 c-30 45 -67 89 -81 98 -24 16 -25 18 -18 102 l6
86 -66 140 c-106 223 -127 280 -240 655 -59 195 -111 361 -115 369 -4 8 -5
-17 -3 -55z"/>
<path d="M7470 5304 l-154 -83 -65 6 -65 6 33 -44 c17 -24 37 -51 44 -61 7 -9
40 -24 72 -33 33 -10 63 -20 67 -24 4 -3 17 -88 29 -189 l21 -182 -22 -59
c-18 -50 -27 -61 -61 -77 -22 -9 -42 -21 -45 -26 -3 -4 59 -5 138 -2 l143 6
118 -72 c65 -40 120 -70 122 -68 3 2 -20 38 -50 80 l-55 76 -62 11 c-35 5 -87
13 -116 17 -33 4 -56 12 -59 22 -3 8 -1 105 5 216 l10 201 -34 56 c-19 31 -34
61 -34 65 0 5 27 39 60 77 60 69 125 156 118 161 -1 2 -73 -34 -158 -80z"/>
<path d="M8974 5351 c9 -16 49 -68 90 -116 l76 -88 -22 -36 c-12 -20 -28 -46
-36 -59 -13 -19 -13 -53 -3 -234 8 -147 8 -213 1 -218 -6 -3 -62 -14 -124 -24
l-115 -18 -38 -56 c-21 -31 -46 -69 -57 -85 -16 -24 1 -16 109 49 l128 77 143
-7 c79 -4 144 -4 144 -2 0 3 -22 17 -48 30 -29 15 -53 35 -61 52 -13 29 -30
188 -31 285 l0 55 85 74 c76 65 194 196 184 204 -2 2 -60 13 -129 25 -111 20
-135 28 -212 72 -48 27 -90 49 -93 49 -3 0 1 -13 9 -29z"/>
<path d="M9509 5353 c6 -12 58 -81 115 -152 l103 -130 6 -197 c5 -161 4 -209
-9 -257 -8 -33 -13 -61 -11 -64 15 -15 52 76 95 235 27 101 51 184 53 186 2 1
46 27 98 56 110 62 116 55 -84 101 l-140 32 -90 81 c-49 44 -103 91 -119 105
-27 24 -28 24 -17 4z"/>
<path d="M10153 5142 c-81 -46 -98 -62 -68 -62 13 0 155 97 155 106 0 6 2 7
-87 -44z"/>
<path d="M6360 5176 c0 -10 131 -98 137 -92 4 4 0 12 -8 20 -18 17 -129 79
-129 72z"/>
<path d="M6876 4509 c-24 -101 -35 -174 -28 -181 9 -9 264 -120 267 -116 1 2
-51 74 -116 162 -102 138 -119 156 -123 135z"/>
<path d="M9577 4360 l-127 -170 -62 31 c-35 17 -94 49 -131 71 -38 22 -70 38
-72 36 -2 -2 27 -54 66 -116 l69 -113 0 -92 0 -92 -120 -78 c-66 -43 -131 -81
-143 -86 -12 -4 -115 -28 -229 -52 -116 -24 -204 -47 -201 -53 4 -5 93 -6 229
-2 l222 7 182 78 c100 44 184 82 187 85 3 3 -12 25 -32 50 l-37 46 7 100 c6
88 11 105 36 139 20 29 33 38 47 34 26 -6 272 135 272 156 0 16 -31 185 -34
189 -2 1 -60 -74 -129 -168z"/>
<path d="M7344 4319 c-10 -12 -49 -48 -86 -81 -64 -57 -70 -59 -98 -49 l-31
10 32 -44 c29 -40 33 -55 40 -145 l9 -101 -195 -223 c-163 -188 -200 -225
-227 -229 -18 -4 -137 -20 -263 -38 l-231 -31 -132 66 c-145 73 -177 82 -53
15 74 -40 80 -47 109 -105 l31 -62 68 28 c58 24 96 31 248 44 99 9 196 19 216
22 l36 5 11 -88 c6 -48 18 -116 28 -150 l17 -62 49 -11 c27 -7 51 -11 53 -9 2
2 -10 33 -26 68 -22 49 -33 95 -45 198 -9 74 -15 136 -13 138 8 7 520 245 529
245 5 0 27 -18 48 -40 l39 -39 205 -7 c304 -10 309 -2 35 58 l-227 49 -125 81
c-69 44 -125 85 -125 91 0 21 102 332 121 369 10 21 19 40 19 43 0 14 -49 2
-66 -16z"/>
<path d="M9525 3730 c5 -8 45 -67 91 -130 l82 -116 -18 -139 c-12 -103 -24
-155 -44 -198 -14 -32 -26 -60 -26 -63 0 -8 69 5 90 16 20 11 50 125 58 221
l7 74 30 -2 c17 -1 115 -9 219 -18 160 -15 200 -22 256 -45 l68 -28 52 75 c29
41 50 77 47 80 -3 3 -36 -12 -74 -32 l-68 -38 -265 37 c-145 20 -267 40 -270
44 -16 18 -225 258 -233 267 -7 6 -7 5 -2 -5z"/>
<path d="M10611 3586 c-70 -18 -88 -27 -112 -56 -16 -19 -29 -38 -29 -42 0 -5
54 19 120 52 155 78 157 82 21 46z"/>
<path d="M10753 2977 c-73 -27 -133 -53 -133 -57 0 -3 21 -16 46 -28 l46 -23
32 25 c39 31 153 135 146 134 -3 0 -65 -23 -137 -51z"/>
<path d="M5706 3012 c5 -5 44 -39 87 -76 l77 -69 45 24 c25 13 45 27 45 30 0
6 -239 99 -254 99 -6 0 -6 -3 0 -8z"/>
<path d="M7181 3003 c-21 -4 -23 -8 -17 -46 14 -105 29 -278 24 -282 -3 -3
-103 22 -223 55 -189 53 -224 66 -261 97 -24 19 -44 33 -44 30 0 -4 24 -44 54
-91 l55 -84 173 -41 c95 -23 182 -42 193 -43 36 -5 169 13 215 27 44 14 50 14
209 -30 91 -24 166 -43 168 -41 11 11 -125 80 -234 120 -69 25 -128 46 -131
46 -4 1 -36 27 -71 59 l-65 58 13 74 c8 41 16 80 18 87 5 12 -26 14 -76 5z"/>
<path d="M9330 3003 c0 -5 7 -44 15 -88 l16 -80 -24 -20 c-13 -11 -44 -36 -68
-57 -31 -25 -84 -50 -174 -83 -113 -41 -245 -109 -233 -120 2 -2 77 16 167 40
l163 45 47 -19 c91 -38 174 -34 386 15 104 25 190 46 192 47 12 13 111 172
108 175 -2 3 -54 -31 -116 -73 l-111 -77 -150 -20 c-82 -11 -151 -18 -153 -16
-3 2 2 60 10 129 21 175 20 195 -7 203 -32 8 -68 7 -68 -1z"/>
<path d="M6202 2878 c-11 -29 -36 -95 -56 -147 l-36 -93 6 -138 c4 -76 10
-143 13 -148 10 -16 391 -95 423 -88 16 3 48 2 71 -3 23 -6 211 -29 417 -52
206 -23 378 -45 383 -49 4 -3 19 -64 32 -135 14 -70 27 -130 29 -133 8 -7 157
-33 168 -30 6 2 -28 48 -75 101 l-86 97 6 72 5 73 102 104 c55 58 89 97 74 88
-16 -9 -38 -23 -50 -31 -18 -11 -95 -15 -343 -20 -176 -4 -377 -9 -446 -12
l-126 -6 -36 32 c-32 28 -42 31 -73 26 -51 -10 -434 81 -434 103 0 9 16 99 35
201 19 102 35 195 35 207 0 42 -19 33 -38 -19z"/>
<path d="M10347 2916 c-3 -8 12 -109 33 -223 22 -114 36 -211 32 -215 -4 -4
-95 -28 -202 -53 -138 -33 -205 -44 -231 -40 -31 5 -42 2 -71 -24 l-34 -30
-450 11 -449 11 -45 30 c-38 26 -29 14 51 -71 101 -106 109 -122 109 -217 0
-36 -9 -50 -86 -137 -47 -54 -79 -98 -72 -98 14 0 112 16 154 25 18 4 24 21
44 134 13 71 26 134 29 138 3 5 177 29 386 52 209 23 397 47 418 52 21 6 52 7
67 4 18 -4 104 9 229 36 l199 42 6 81 c15 200 13 220 -43 361 -56 139 -65 155
-74 131z"/>
<path d="M5850 1970 c0 -29 25 -47 76 -54 26 -3 49 -5 51 -3 1 2 -26 20 -62
39 -57 32 -65 34 -65 18z"/>
<path d="M10678 1956 c-76 -43 -81 -49 -33 -41 78 12 83 15 89 41 4 15 6 28 4
29 -2 2 -29 -11 -60 -29z"/>
</g>
</svg>
